<svg width="400" height="400" viewBox="0 0 400 400" fill="none" xmlns="http://www.w3.org/2000/svg">
<g clip-path="url(#clip0_11_97)">
<path d="M200 400C310.457 400 400 310.457 400 200C400 89.5431 310.457 0 200 0C89.5431 0 0 89.5431 0 200C0 310.457 89.5431 400 200 400Z" fill="black"/>
<g clip-path="url(#clip1_11_97)">
<path d="M249.387 217.237C248.016 217.107 246.645 216.911 245.34 216.715C246.71 216.911 248.081 217.041 249.387 217.237Z" fill="black"/>
<path d="M200.495 189.691C189.855 168.999 160.873 130.421 133.915 111.426C108.131 93.1491 98.2744 96.3475 91.8121 99.2196C84.3708 102.614 83 114.102 83 120.826C83 127.549 86.7207 176.179 89.1358 184.273C97.0994 211.036 125.494 220.109 151.604 217.237C152.91 217.041 154.28 216.845 155.651 216.715C154.28 216.91 152.975 217.106 151.604 217.237C113.288 222.916 79.2793 236.885 123.927 286.559C173.014 337.408 191.161 275.658 200.495 244.391C209.829 275.658 220.6 335.189 276.214 286.559C317.99 244.391 287.702 222.916 249.386 217.237C248.015 217.106 246.644 216.91 245.339 216.715C246.71 216.91 248.08 217.041 249.386 217.237C275.496 220.174 303.891 211.101 311.854 184.273C314.269 176.179 317.99 127.614 317.99 120.826C317.99 114.037 316.619 102.614 309.178 99.2196C302.716 96.2823 292.859 93.1491 267.076 111.361C240.117 130.356 211.135 168.933 200.495 189.626V189.691Z" fill="white"/>
</g>
</g>
<defs>
<clipPath id="clip0_11_97">
<rect width="400" height="400" fill="black"/>
</clipPath>
<clipPath id="clip1_11_97">
<rect width="234.99" height="208.88" fill="black" transform="translate(83 97)"/>
</clipPath>
</defs>
</svg>
