<svg width="32" height="32" viewBox="0 0 32 32" fill="none" xmlns="http://www.w3.org/2000/svg">
<path d="M0 16C0 24.8366 7.16344 32 16 32C24.8366 32 32 24.8366 32 16C32 7.16344 24.8366 0 16 0C7.16344 0 0 7.16344 0 16Z" fill="#1DA1F2"/>
<path d="M10 22C9.5875 22 9.23438 21.8531 8.94063 21.5594C8.64687 21.2656 8.5 20.9125 8.5 20.5V11.5C8.5 11.0875 8.64687 10.7344 8.94063 10.4406C9.23438 10.1469 9.5875 10 10 10H22C22.4125 10 22.7656 10.1469 23.0594 10.4406C23.3531 10.7344 23.5 11.0875 23.5 11.5V20.5C23.5 20.9125 23.3531 21.2656 23.0594 21.5594C22.7656 21.8531 22.4125 22 22 22H10ZM16 16.75L22 13V11.5L16 15.25L10 11.5V13L16 16.75Z" fill="white"/>
</svg>
